<?xml version="1.0" encoding="UTF-8"?>
<!DOCTYPE svg PUBLIC "-//W3C//DTD SVG 1.1//EN" "http://www.w3.org/Graphics/SVG/1.1/DTD/svg11.dtd">
<svg xmlns="http://www.w3.org/2000/svg" version="1.1" width="1986px" height="2396px" style="shape-rendering:geometricPrecision; text-rendering:geometricPrecision; image-rendering:optimizeQuality; fill-rule:evenodd; clip-rule:evenodd" xmlns:xlink="http://www.w3.org/1999/xlink">
<g><path style="opacity:0.994" fill="#0077b9" d="M 462.5,11.5 C 927.5,11.3333 1392.5,11.5 1857.5,12C 1906.13,20.9634 1936.3,49.4634 1948,97.5C 1949.02,103.793 1949.69,110.126 1950,116.5C 1950.17,473.5 1950.33,830.5 1950.5,1187.5C 1950.33,1544.5 1950.17,1901.5 1950,2258.5C 1946.73,2305.91 1923.23,2338.74 1879.5,2357C 1869.76,2360.28 1859.76,2362.28 1849.5,2363C 1505.5,2363.83 1161.5,2363.67 817.5,2362.5C 984.696,2305.62 1112.03,2200.62 1199.5,2047.5C 1200.33,2074.83 1200.83,2102.16 1201,2129.5C 1203.41,2136.91 1208.24,2142.08 1215.5,2145C 1299.11,2146.66 1382.78,2146.99 1466.5,2146C 1475.24,2143.6 1481.07,2138.1 1484,2129.5C 1484.67,2073.5 1484.67,2017.5 1484,1961.5C 1480.98,1952.49 1474.82,1946.99 1465.5,1945C 1392.17,1944.5 1318.83,1944.33 1245.5,1944.5C 1252.01,1924.14 1258.01,1903.64 1263.5,1883C 1331.17,1882.67 1398.83,1882.33 1466.5,1882C 1475.24,1879.6 1481.07,1874.1 1484,1865.5C 1484.67,1809.5 1484.67,1753.5 1484,1697.5C 1480.98,1688.49 1474.82,1682.99 1465.5,1681C 1403.83,1680.5 1342.17,1680.33 1280.5,1680.5C 1278.58,1659.46 1276.24,1638.46 1273.5,1617.5C 1338.5,1617.67 1403.5,1617.5 1468.5,1617C 1476.33,1614.5 1481.5,1609.33 1484,1601.5C 1484.67,1545.17 1484.67,1488.83 1484,1432.5C 1481.1,1423.93 1475.26,1418.43 1466.5,1416C 1383.83,1415.33 1301.17,1415.33 1218.5,1416C 1214.84,1416.83 1211.51,1418.33 1208.5,1420.5C 1185.98,1377.43 1159.48,1337.09 1129,1299.5C 1128.67,1257.17 1128.33,1214.83 1128,1172.5C 1126.17,1160 1119,1152.83 1106.5,1151C 1055.5,1150.67 1004.5,1150.33 953.5,1150C 896.135,1115.49 834.801,1090.65 769.5,1075.5C 770.646,1018.52 770.813,961.518 770,904.5C 767.5,895.333 761.667,889.5 752.5,887C 669.5,886.333 586.5,886.333 503.5,887C 493.244,890.587 487.411,897.754 486,908.5C 485.5,961.832 485.333,1015.17 485.5,1068.5C 446.335,1076.21 408.001,1086.87 370.5,1100.5C 370.333,769.5 370.5,438.5 371,107.5C 377.105,63.7931 400.605,33.6265 441.5,17C 448.586,14.98 455.586,13.1467 462.5,11.5 Z M 507.5,207.5 C 944.195,207.003 1380.86,207.503 1817.5,209C 1836.97,215.096 1848.14,228.263 1851,248.5C 1851.67,350.5 1851.67,452.5 1851,554.5C 1847.5,578 1834,591.5 1810.5,595C 1374.47,595.997 938.472,595.664 502.5,594C 484.457,588.625 473.29,576.791 469,558.5C 468.333,453.833 468.333,349.167 469,244.5C 474.229,224.102 487.062,211.769 507.5,207.5 Z M 863.5,886.5 C 944.167,886.333 1024.83,886.5 1105.5,887C 1115.9,888.11 1122.73,893.61 1126,903.5C 1126.67,959.833 1126.67,1016.17 1126,1072.5C 1122.74,1080.09 1117.24,1085.26 1109.5,1088C 1026.17,1088.67 942.833,1088.67 859.5,1088C 851.333,1085.17 845.833,1079.67 843,1071.5C 842.333,1015.83 842.333,960.167 843,904.5C 846.325,894.432 853.158,888.432 863.5,886.5 Z M 1220.5,886.5 C 1301.17,886.333 1381.83,886.5 1462.5,887C 1473.04,888.516 1479.87,894.349 1483,904.5C 1483.67,960.167 1483.67,1015.83 1483,1071.5C 1480.17,1079.67 1474.67,1085.17 1466.5,1088C 1383.17,1088.67 1299.83,1088.67 1216.5,1088C 1208.33,1085.17 1202.83,1079.67 1200,1071.5C 1199.33,1015.5 1199.33,959.5 1200,903.5C 1203.54,893.673 1210.37,888.006 1220.5,886.5 Z M 1577.5,886.5 C 1658.17,886.333 1738.83,886.5 1819.5,887C 1829.7,888.871 1836.54,894.704 1840,904.5C 1840.67,959.833 1840.67,1015.17 1840,1070.5C 1837.6,1079.24 1832.1,1085.07 1823.5,1088C 1740.17,1088.67 1656.83,1088.67 1573.5,1088C 1563.36,1084.91 1557.53,1078.08 1556,1067.5C 1555.33,1014.5 1555.33,961.5 1556,908.5C 1558.01,895.989 1565.18,888.655 1577.5,886.5 Z M 1217.5,1151.5 C 1300.17,1151.33 1382.83,1151.5 1465.5,1152C 1474.26,1154.43 1480.1,1159.93 1483,1168.5C 1483.67,1224.5 1483.67,1280.5 1483,1336.5C 1479.98,1345.51 1473.82,1351.01 1464.5,1353C 1382.5,1353.67 1300.5,1353.67 1218.5,1353C 1209.18,1351.01 1203.02,1345.51 1200,1336.5C 1199.33,1280.5 1199.33,1224.5 1200,1168.5C 1203.11,1159.89 1208.94,1154.22 1217.5,1151.5 Z M 1574.5,1151.5 C 1657.17,1151.33 1739.83,1151.5 1822.5,1152C 1831.67,1154.5 1837.5,1160.33 1840,1169.5C 1840.67,1224.83 1840.67,1280.17 1840,1335.5C 1837.39,1345.11 1831.22,1350.95 1821.5,1353C 1739.5,1353.67 1657.5,1353.67 1575.5,1353C 1564.1,1350.27 1557.6,1343.1 1556,1331.5C 1555.33,1278.83 1555.33,1226.17 1556,1173.5C 1557.7,1162.31 1563.87,1154.98 1574.5,1151.5 Z M 1572.5,1416.5 C 1656.17,1416.33 1739.83,1416.5 1823.5,1417C 1832.11,1419.94 1837.61,1425.77 1840,1434.5C 1840.67,1489.5 1840.67,1544.5 1840,1599.5C 1837.61,1608.23 1832.11,1614.06 1823.5,1617C 1739.83,1617.67 1656.17,1617.67 1572.5,1617C 1562.6,1613.69 1557.1,1606.86 1556,1596.5C 1555.33,1543.5 1555.33,1490.5 1556,1437.5C 1557.25,1427.09 1562.75,1420.09 1572.5,1416.5 Z M 1575.5,1680.5 C 1657.5,1680.33 1739.5,1680.5 1821.5,1681C 1831.22,1683.05 1837.39,1688.89 1840,1698.5C 1840.67,1842.17 1840.67,1985.83 1840,2129.5C 1836.54,2139.3 1829.7,2145.13 1819.5,2147C 1738.83,2147.67 1658.17,2147.67 1577.5,2147C 1565,2145.17 1557.83,2138 1556,2125.5C 1555.33,1984.5 1555.33,1843.5 1556,1702.5C 1557.79,1690.88 1564.29,1683.55 1575.5,1680.5 Z"/></g>
<g><path style="opacity:0.987" fill="#fe2a00" d="M 588.5,1126.5 C 776.235,1123.32 933.401,1190.32 1060,1327.5C 1180.1,1467.84 1228.43,1630.18 1205,1814.5C 1177.98,1977.14 1099.48,2108.3 969.5,2208C 820.927,2314.05 656.927,2348.38 477.5,2311C 315.891,2270.98 190.391,2181.15 101,2041.5C 25.2452,1915.39 -2.0881,1779.39 19,1633.5C 50.9024,1452.71 143.736,1313.21 297.5,1215C 387.008,1160.87 484.008,1131.37 588.5,1126.5 Z M 584.5,1199.5 C 745.326,1194.87 881.826,1249.54 994,1363.5C 1107.58,1488.34 1153.91,1635.01 1133,1803.5C 1108.78,1949.52 1037.62,2066.36 919.5,2154C 791.8,2242.66 651.467,2271.66 498.5,2241C 339.242,2202.36 220.742,2111.2 143,1967.5C 78.6455,1837.58 67.6455,1703.25 110,1564.5C 153.457,1436.36 233.291,1337.86 349.5,1269C 422.561,1227.66 500.895,1204.49 584.5,1199.5 Z M 576.5,1513.5 C 577.833,1513.5 579.167,1513.5 580.5,1513.5C 580.5,1563.5 580.5,1613.5 580.5,1663.5C 559.864,1658.57 540.864,1650.07 523.5,1638C 499.745,1617.48 492.911,1592.32 503,1562.5C 512.937,1544.43 527.437,1531.26 546.5,1523C 556.393,1519.09 566.393,1515.92 576.5,1513.5 Z M 642.5,1790.5 C 663.009,1795.76 682.009,1804.26 699.5,1816C 723.628,1836.97 730.128,1862.47 719,1892.5C 710.391,1908.44 697.891,1920.28 681.5,1928C 669.097,1933.58 656.263,1937.75 643,1940.5C 642.5,1890.5 642.333,1840.5 642.5,1790.5 Z"/></g>
<g><path style="opacity:0.992" fill="#fe2a00" d="M 579.5,1272.5 C 600.5,1272.5 621.5,1272.5 642.5,1272.5C 642.333,1315.83 642.5,1359.17 643,1402.5C 700.177,1411.92 748.51,1437.58 788,1479.5C 818.067,1515.19 833.234,1556.52 833.5,1603.5C 807.156,1603.59 780.823,1603.09 754.5,1602C 738.805,1598.9 725.971,1591.07 716,1578.5C 704.234,1558.07 688.401,1541.57 668.5,1529C 660.317,1524.22 651.651,1520.72 642.5,1518.5C 642.5,1572.5 642.5,1626.5 642.5,1680.5C 672.826,1686.67 702.493,1695.17 731.5,1706C 764.933,1718.28 792.433,1738.44 814,1766.5C 831.846,1795.21 840.346,1826.54 839.5,1860.5C 839.209,1929.5 810.209,1982.33 752.5,2019C 718.61,2039.14 681.944,2050.64 642.5,2053.5C 642.5,2095.5 642.5,2137.5 642.5,2179.5C 621.5,2179.5 600.5,2179.5 579.5,2179.5C 579.5,2136.83 579.5,2094.17 579.5,2051.5C 523.462,2043.4 475.962,2019.07 437,1978.5C 405.21,1942.32 389.043,1899.98 388.5,1851.5C 412.836,1851.33 437.169,1851.5 461.5,1852C 479.756,1853.38 494.589,1861.21 506,1875.5C 517.416,1895.25 532.583,1911.41 551.5,1924C 560.296,1929.23 569.629,1933.07 579.5,1935.5C 579.5,1882.17 579.5,1828.83 579.5,1775.5C 547.718,1769.41 516.718,1760.57 486.5,1749C 416.616,1720.56 381.95,1668.39 382.5,1592.5C 384.974,1508.35 424.974,1450.18 502.5,1418C 527.2,1407.91 552.866,1402.08 579.5,1400.5C 579.5,1357.83 579.5,1315.17 579.5,1272.5 Z M 576.5,1513.5 C 566.393,1515.92 556.393,1519.09 546.5,1523C 527.437,1531.26 512.937,1544.43 503,1562.5C 492.911,1592.32 499.745,1617.48 523.5,1638C 540.864,1650.07 559.864,1658.57 580.5,1663.5C 580.5,1613.5 580.5,1563.5 580.5,1513.5C 579.167,1513.5 577.833,1513.5 576.5,1513.5 Z M 642.5,1790.5 C 642.333,1840.5 642.5,1890.5 643,1940.5C 656.263,1937.75 669.097,1933.58 681.5,1928C 697.891,1920.28 710.391,1908.44 719,1892.5C 730.128,1862.47 723.628,1836.97 699.5,1816C 682.009,1804.26 663.009,1795.76 642.5,1790.5 Z"/></g>
</svg>
