<svg xmlns="http://www.w3.org/2000/svg" width="1000" height="1000" id="empty" style=""><g id="logo" transform="matrix(1,0,0,1,0,0)"><g id="icon" transform="matrix(1.0845314782973137,0,0,1.0845314782973137,0,-2.121738041505779)"><path fill="#4273b8" d="M528.3484556451962 115.53761947434697L282.84845564519617 115.53761947434697C272.24845564519615 115.53761947434697 263.6484556451961 124.13761947434696 263.6484556451961 134.73761947434696L263.6484556451961 311.43761947434695C270.24845564519615 308.93761947434695 277.1484556451961 306.93761947434695 284.24845564519615 305.53761947434697C284.24845564519615 305.43761947434695 284.24845564519615 305.337619474347 284.24845564519615 305.13761947434693L284.24845564519615 277.03761947434697C284.24845564519615 274.73761947434696 286.1484556451961 272.837619474347 288.44845564519613 272.837619474347L331.44845564519613 272.837619474347C333.74845564519615 272.837619474347 335.6484556451961 274.73761947434696 335.6484556451961 277.03761947434697L335.6484556451961 305.13761947434693C335.6484556451961 305.73761947434696 335.54845564519616 306.23761947434696 335.34845564519617 306.73761947434696C347.24845564519615 309.63761947434693 358.54845564519616 314.23761947434696 368.84845564519617 320.43761947434695L395.74845564519615 320.43761947434695C398.04845564519616 320.43761947434695 399.94845564519613 322.337619474347 399.94845564519613 324.63761947434693L399.94845564519613 347.037619474347C405.54845564519616 353.737619474347 410.34845564519617 361.037619474347 414.34845564519617 368.937619474347C415.04845564519616 368.337619474347 415.94845564519613 368.037619474347 416.94845564519613 368.037619474347L459.94845564519613 368.037619474347C462.24845564519615 368.037619474347 464.1484556451961 369.937619474347 464.1484556451961 372.237619474347L464.1484556451961 400.437619474347C464.1484556451961 402.737619474347 462.24845564519615 404.637619474347 459.94845564519613 404.637619474347L426.04845564519616 404.637619474347C426.6484556451961 408.237619474347 427.04845564519616 411.937619474347 427.34845564519617 415.737619474347L459.94845564519613 415.737619474347C462.24845564519615 415.737619474347 464.1484556451961 417.637619474347 464.1484556451961 419.937619474347L464.1484556451961 448.037619474347C464.1484556451961 450.337619474347 462.24845564519615 452.237619474347 459.94845564519613 452.237619474347L424.24845564519615 452.237619474347C423.34845564519617 456.037619474347 422.24845564519615 459.637619474347 421.04845564519616 463.237619474347L459.94845564519613 463.237619474347C462.24845564519615 463.237619474347 464.1484556451961 465.137619474347 464.1484556451961 467.437619474347L464.1484556451961 495.537619474347C464.1484556451961 497.837619474347 462.24845564519615 499.737619474347 459.94845564519613 499.737619474347L416.94845564519613 499.737619474347C414.6484556451961 499.737619474347 412.74845564519615 497.837619474347 412.74845564519615 495.537619474347L412.74845564519615 481.837619474347C398.04845564519616 508.537619474347 373.54845564519616 529.1376194743469 344.04845564519616 538.537619474347L528.4484556451962 538.537619474347C539.0484556451961 538.537619474347 547.6484556451961 529.937619474347 547.6484556451961 519.337619474347L547.6484556451961 134.73761947434696C547.5484556451961 124.03761947434697 538.9484556451962 115.53761947434697 528.3484556451962 115.53761947434697ZM399.74845564519615 305.23761947434696C399.74845564519615 307.53761947434697 397.84845564519617 309.43761947434695 395.54845564519616 309.43761947434695L352.54845564519616 309.43761947434695C350.24845564519615 309.43761947434695 348.34845564519617 307.53761947434697 348.34845564519617 305.23761947434696L348.34845564519617 277.13761947434693C348.34845564519617 274.837619474347 350.24845564519615 272.93761947434695 352.54845564519616 272.93761947434695L395.54845564519616 272.93761947434695C397.84845564519617 272.93761947434695 399.74845564519615 274.837619474347 399.74845564519615 277.13761947434693L399.74845564519615 305.23761947434696ZM463.94845564519613 352.837619474347C463.94845564519613 355.137619474347 462.04845564519616 357.037619474347 459.74845564519615 357.037619474347L416.74845564519615 357.037619474347C414.44845564519613 357.037619474347 412.54845564519616 355.137619474347 412.54845564519616 352.837619474347L412.54845564519616 324.73761947434696C412.54845564519616 322.43761947434695 414.44845564519613 320.53761947434697 416.74845564519615 320.53761947434697L459.74845564519615 320.53761947434697C462.04845564519616 320.53761947434697 463.94845564519613 322.43761947434695 463.94845564519613 324.73761947434696L463.94845564519613 352.837619474347ZM463.94845564519613 305.23761947434696C463.94845564519613 307.53761947434697 462.04845564519616 309.43761947434695 459.74845564519615 309.43761947434695L416.74845564519615 309.43761947434695C414.44845564519613 309.43761947434695 412.54845564519616 307.53761947434697 412.54845564519616 305.23761947434696L412.54845564519616 277.13761947434693C412.54845564519616 274.837619474347 414.44845564519613 272.93761947434695 416.74845564519615 272.93761947434695L459.74845564519615 272.93761947434695C462.04845564519616 272.93761947434695 463.94845564519613 274.837619474347 463.94845564519613 277.13761947434693L463.94845564519613 305.23761947434696ZM528.1484556451961 495.637619474347C528.1484556451961 497.937619474347 526.2484556451961 499.837619474347 523.9484556451962 499.837619474347L480.94845564519613 499.837619474347C478.6484556451961 499.837619474347 476.74845564519615 497.937619474347 476.74845564519615 495.637619474347L476.74845564519615 419.937619474347C476.74845564519615 417.637619474347 478.6484556451961 415.737619474347 480.94845564519613 415.737619474347L523.9484556451962 415.737619474347C526.2484556451961 415.737619474347 528.1484556451961 417.637619474347 528.1484556451961 419.937619474347L528.1484556451961 495.637619474347ZM528.1484556451961 400.437619474347C528.1484556451961 402.737619474347 526.2484556451961 404.637619474347 523.9484556451962 404.637619474347L480.94845564519613 404.637619474347C478.6484556451961 404.637619474347 476.74845564519615 402.737619474347 476.74845564519615 400.437619474347L476.74845564519615 372.337619474347C476.74845564519615 370.037619474347 478.6484556451961 368.137619474347 480.94845564519613 368.137619474347L523.9484556451962 368.137619474347C526.2484556451961 368.137619474347 528.1484556451961 370.037619474347 528.1484556451961 372.337619474347L528.1484556451961 400.437619474347ZM528.1484556451961 352.837619474347C528.1484556451961 355.137619474347 526.2484556451961 357.037619474347 523.9484556451962 357.037619474347L480.94845564519613 357.037619474347C478.6484556451961 357.037619474347 476.74845564519615 355.137619474347 476.74845564519615 352.837619474347L476.74845564519615 324.73761947434696C476.74845564519615 322.43761947434695 478.6484556451961 320.53761947434697 480.94845564519613 320.53761947434697L523.9484556451962 320.53761947434697C526.2484556451961 320.53761947434697 528.1484556451961 322.43761947434695 528.1484556451961 324.73761947434696L528.1484556451961 352.837619474347ZM528.1484556451961 305.23761947434696C528.1484556451961 307.53761947434697 526.2484556451961 309.43761947434695 523.9484556451962 309.43761947434695L480.94845564519613 309.43761947434695C478.6484556451961 309.43761947434695 476.74845564519615 307.53761947434697 476.74845564519615 305.23761947434696L476.74845564519615 277.13761947434693C476.74845564519615 274.837619474347 478.6484556451961 272.93761947434695 480.94845564519613 272.93761947434695L523.9484556451962 272.93761947434695C526.2484556451961 272.93761947434695 528.1484556451961 274.837619474347 528.1484556451961 277.13761947434693L528.1484556451961 305.23761947434696ZM530.0484556451961 212.53761947434697C530.0484556451961 217.03761947434697 526.4484556451962 220.63761947434693 521.9484556451962 220.63761947434693L289.1484556451961 220.63761947434693C284.6484556451961 220.63761947434693 281.04845564519616 217.03761947434697 281.04845564519616 212.53761947434697L281.04845564519616 158.83761947434698C281.04845564519616 154.33761947434698 284.6484556451961 150.73761947434696 289.1484556451961 150.73761947434696L521.9484556451962 150.73761947434696C526.4484556451962 150.73761947434696 530.0484556451961 154.33761947434698 530.0484556451961 158.83761947434698L530.0484556451961 212.53761947434697Z " transform="matrix(1.2734181386744525,0,0,1.2734184535682624,-14.463813695036947,-6.862803288864249)"></path><path fill="#e62e00" d="M306.9484556451962 316.23761947434696C247.4484556451962 316.23761947434696 199.14845564519618 364.53761947434697 199.14845564519618 424.03761947434697C199.14845564519618 483.53761947434697 247.4484556451962 531.8376194743469 306.9484556451962 531.8376194743469C366.4484556451962 531.8376194743469 414.74845564519615 483.53761947434697 414.74845564519615 424.03761947434697C414.6484556451961 364.43761947434695 366.4484556451962 316.23761947434696 306.9484556451962 316.23761947434696ZM306.9484556451962 518.937619474347C254.54845564519619 518.937619474347 212.04845564519619 476.43761947434695 212.04845564519619 424.03761947434697C212.04845564519619 371.637619474347 254.54845564519619 329.13761947434693 306.9484556451962 329.13761947434693C359.34845564519617 329.13761947434693 401.84845564519617 371.637619474347 401.84845564519617 424.03761947434697C401.84845564519617 476.43761947434695 359.34845564519617 518.937619474347 306.9484556451962 518.937619474347Z " transform="matrix(1.2734181386744525,0,0,1.2734184535682624,-14.463813695036947,-6.862803288864249)"></path><path fill="#e62e00" d="M312.44845564519613 415.8376194743469L312.44845564519613 386.43761947434695C317.04845564519616 387.8376194743469 321.34845564519617 390.53761947434697 324.1484556451961 395.03761947434697C326.1484556451961 397.8376194743469 328.44845564519613 401.43761947434695 334.1484556451961 401.737619474347L346.74845564519615 401.8376194743469C346.74845564519615 381.93761947434695 330.6484556451961 368.8376194743469 312.44845564519613 365.93761947434695L312.44845564519613 342.53761947434697L301.24845564519615 342.53761947434697L301.24845564519615 365.43761947434695C291.94845564519613 366.137619474347 282.94845564519613 369.53761947434697 275.74845564519615 376.03761947434697C270.34845564519617 380.93761947434695 265.84845564519617 389.237619474347 265.84845564519617 399.93761947434695C265.84845564519617 424.237619474347 284.54845564519616 429.137619474347 301.24845564519615 432.8376194743469L301.24845564519615 461.93761947434695C296.6484556451961 460.53761947434697 292.34845564519617 457.8376194743469 289.54845564519616 453.3376194743469C287.54845564519616 450.53761947434697 285.24845564519615 446.93761947434695 279.54845564519616 446.737619474347L266.94845564519613 446.637619474347C266.94845564519613 466.53761947434697 283.04845564519616 479.637619474347 301.24845564519615 482.53761947434697L301.24845564519615 505.43761947434695L312.44845564519613 505.43761947434695L312.44845564519613 482.8376194743469C321.74845564519615 482.137619474347 330.74845564519615 478.737619474347 337.94845564519613 472.237619474347C343.34845564519617 467.3376194743469 347.84845564519617 459.03761947434697 347.84845564519617 448.3376194743469C347.94845564519613 424.737619474347 329.24845564519615 419.8376194743469 312.44845564519613 415.8376194743469ZM286.44845564519613 398.637619474347C286.44845564519613 391.737619474347 293.24845564519615 386.8376194743469 301.34845564519617 385.637619474347L301.34845564519617 412.93761947434695C292.74845564519615 410.43761947434695 286.44845564519613 406.8376194743469 286.44845564519613 398.637619474347ZM312.44845564519613 462.637619474347L312.44845564519613 435.43761947434695C321.04845564519616 437.93761947434695 327.34845564519617 441.43761947434695 327.34845564519617 449.53761947434697C327.34845564519617 456.53761947434697 320.54845564519616 461.3376194743469 312.44845564519613 462.637619474347Z " transform="matrix(1.2734181386744525,0,0,1.2734184535682624,-14.463813695036947,-6.862803288864249)"></path><g transform="matrix(11.460763248070073,0,0,11.460766082114361,-14.463813695036947,-6.862803288864249)"></g></g><g id="brand" fill="#1a1a1a" transform="matrix(1.0845314782973137,0,0,1.0845314782973137,0,643.994377219846)"><g transform="matrix(1,0,0,1,0,0)"><path id="text" transform="matrix(1 0 0 1 -7.2 73.92)" d="M253.7165431358303 115.16495833095009L242.77254313583032 115.16495833095009L209.84454313583032 65.34095833095009L209.84454313583032 115.16495833095009L198.9005431358303 115.16495833095009L198.9005431358303 48.34895833095008L209.84454313583032 48.34895833095008L242.77254313583032 98.07695833095008L242.77254313583032 48.34895833095008L253.7165431358303 48.34895833095008L253.7165431358303 115.16495833095009ZM277.5245431358303 112.62095833095009C273.4925431358303 110.34895833095008 270.3245431358303 107.14895833095008 268.0205431358303 103.02095833095008C265.7165431358303 98.89295833095008 264.5645431358303 94.10895833095009 264.5645431358303 88.66895833095009C264.5645431358303 83.29295833095009 265.74854313583035 78.52495833095008 268.1165431358303 74.36495833095009C270.48454313583034 70.20495833095009 273.7165431358303 67.00495833095009 277.8125431358303 64.7649583309501C281.9085431358303 62.524958330950085 286.48454313583034 61.40495833095009 291.5405431358303 61.40495833095009C296.5965431358303 61.40495833095009 301.1725431358303 62.524958330950085 305.2685431358303 64.7649583309501C309.36454313583033 67.00495833095009 312.5965431358303 70.20495833095009 314.9645431358303 74.36495833095009C317.3325431358303 78.52495833095008 318.5165431358303 83.29295833095009 318.5165431358303 88.66895833095009C318.5165431358303 94.04495833095008 317.3005431358303 98.81295833095008 314.86854313583035 102.97295833095009C312.43654313583033 107.13295833095009 309.1245431358303 110.34895833095008 304.9325431358303 112.62095833095009C300.7405431358303 114.89295833095008 296.1165431358303 116.02895833095009 291.0605431358303 116.02895833095009C286.0685431358303 116.02895833095009 281.55654313583034 114.89295833095008 277.5245431358303 112.62095833095009ZM298.9805431358303 104.50895833095008C301.4445431358303 103.16495833095009 303.4445431358303 101.14895833095008 304.9805431358303 98.46095833095009C306.5165431358303 95.77295833095009 307.2845431358303 92.5089583309501 307.2845431358303 88.66895833095009C307.2845431358303 84.82895833095009 306.5485431358303 81.58095833095008 305.0765431358303 78.92495833095009C303.60454313583034 76.26895833095008 301.65254313583034 74.26895833095008 299.2205431358303 72.92495833095009C296.7885431358303 71.58095833095008 294.1645431358303 70.90895833095009 291.3485431358303 70.90895833095009C288.53254313583034 70.90895833095009 285.92454313583033 71.58095833095008 283.5245431358303 72.92495833095009C281.1245431358303 74.26895833095008 279.2205431358303 76.26895833095008 277.8125431358303 78.92495833095009C276.4045431358303 81.58095833095008 275.70054313583034 84.82895833095009 275.70054313583034 88.66895833095009C275.70054313583034 94.36495833095009 277.1565431358303 98.7649583309501 280.0685431358303 101.86895833095008C282.9805431358303 104.97295833095009 286.6445431358303 106.52495833095008 291.0605431358303 106.52495833095008C293.87654313583033 106.52495833095008 296.5165431358303 105.85295833095009 298.9805431358303 104.50895833095008ZM404.58054313583034 63.996958330950086C407.8765431358303 65.72495833095009 410.4685431358303 68.28495833095008 412.3565431358303 71.67695833095009C414.2445431358303 75.0689583309501 415.1885431358303 79.16495833095009 415.1885431358303 83.96495833095008L415.1885431358303 115.16495833095009L404.34054313583033 115.16495833095009L404.34054313583033 85.59695833095009C404.34054313583033 80.86095833095008 403.1565431358303 77.22895833095009 400.7885431358303 74.70095833095009C398.4205431358303 72.17295833095008 395.1885431358303 70.90895833095009 391.0925431358303 70.90895833095009C386.9965431358303 70.90895833095009 383.74854313583035 72.17295833095008 381.3485431358303 74.70095833095009C378.9485431358303 77.22895833095009 377.74854313583035 80.86095833095008 377.74854313583035 85.59695833095009L377.74854313583035 115.16495833095009L366.9005431358303 115.16495833095009L366.9005431358303 85.59695833095009C366.9005431358303 80.86095833095008 365.7165431358303 77.22895833095009 363.3485431358303 74.70095833095009C360.9805431358303 72.17295833095008 357.74854313583035 70.90895833095009 353.65254313583034 70.90895833095009C349.55654313583034 70.90895833095009 346.3085431358303 72.17295833095008 343.9085431358303 74.70095833095009C341.50854313583034 77.22895833095009 340.3085431358303 80.86095833095008 340.3085431358303 85.59695833095009L340.3085431358303 115.16495833095009L329.36454313583033 115.16495833095009L329.36454313583033 62.268958330950085L340.3085431358303 62.268958330950085L340.3085431358303 68.31695833095009C342.1005431358303 66.14095833095008 344.3725431358303 64.44495833095009 347.1245431358303 63.228958330950086C349.8765431358303 62.012958330950084 352.82054313583035 61.40495833095009 355.9565431358303 61.40495833095009C360.1805431358303 61.40495833095009 363.9565431358303 62.30095833095009 367.2845431358303 64.09295833095008C370.6125431358303 65.88495833095008 373.1725431358303 68.47695833095008 374.96454313583035 71.86895833095008C376.5645431358303 68.66895833095009 379.06054313583036 66.12495833095008 382.4525431358303 64.23695833095009C385.84454313583035 62.34895833095008 389.4925431358303 61.40495833095009 393.3965431358303 61.40495833095009C397.55654313583034 61.40495833095009 401.2845431358303 62.268958330950085 404.58054313583034 63.996958330950086ZM429.6845431358303 53.244958330950084C428.34054313583033 51.90095833095008 427.6685431358303 50.23695833095009 427.6685431358303 48.25295833095008C427.6685431358303 46.268958330950085 428.34054313583033 44.60495833095008 429.6845431358303 43.26095833095009C431.0285431358303 41.91695833095008 432.6925431358303 41.244958330950084 434.67654313583034 41.244958330950084C436.5965431358303 41.244958330950084 438.2285431358303 41.91695833095008 439.5725431358303 43.26095833095009C440.91654313583035 44.60495833095008 441.5885431358303 46.268958330950085 441.5885431358303 48.25295833095008C441.5885431358303 50.23695833095009 440.91654313583035 51.90095833095008 439.5725431358303 53.244958330950084C438.2285431358303 54.588958330950085 436.5965431358303 55.26095833095008 434.67654313583034 55.26095833095008C432.6925431358303 55.26095833095008 431.0285431358303 54.588958330950085 429.6845431358303 53.244958330950084ZM440.0525431358303 62.268958330950085L440.0525431358303 115.16495833095009L429.1085431358303 115.16495833095009L429.1085431358303 62.268958330950085L440.0525431358303 62.268958330950085ZM492.32454313583037 63.996958330950086C495.6205431358303 65.72495833095009 498.1965431358303 68.28495833095008 500.0525431358303 71.67695833095009C501.9085431358303 75.0689583309501 502.8365431358303 79.16495833095009 502.8365431358303 83.96495833095008L502.8365431358303 115.16495833095009L491.98854313583035 115.16495833095009L491.98854313583035 85.59695833095009C491.98854313583035 80.86095833095008 490.8045431358303 77.22895833095009 488.43654313583033 74.70095833095009C486.0685431358303 72.17295833095008 482.8365431358303 70.90895833095009 478.7405431358303 70.90895833095009C474.6445431358303 70.90895833095009 471.39654313583037 72.17295833095008 468.9965431358303 74.70095833095009C466.5965431358303 77.22895833095009 465.39654313583037 80.86095833095008 465.39654313583037 85.59695833095009L465.39654313583037 115.16495833095009L454.4525431358303 115.16495833095009L454.4525431358303 62.268958330950085L465.39654313583037 62.268958330950085L465.39654313583037 68.31695833095009C467.1885431358303 66.14095833095008 469.4765431358303 64.44495833095009 472.2605431358303 63.228958330950086C475.0445431358303 62.012958330950084 478.0045431358303 61.40495833095009 481.1405431358303 61.40495833095009C485.30054313583037 61.40495833095009 489.0285431358303 62.268958330950085 492.32454313583037 63.996958330950086ZM516.4205431358304 74.36495833095009C518.6285431358303 70.26895833095008 521.6365431358303 67.08495833095009 525.4445431358304 64.8129583309501C529.2525431358304 62.54095833095008 533.4605431358303 61.40495833095009 538.0685431358303 61.40495833095009C542.2285431358304 61.40495833095009 545.8605431358303 62.22095833095008 548.9645431358304 63.85295833095009C552.0685431358303 65.48495833095009 554.5485431358303 67.51695833095008 556.4045431358303 69.94895833095009L556.4045431358303 62.268958330950085L567.4445431358304 62.268958330950085L567.4445431358304 115.16495833095009L556.4045431358303 115.16495833095009L556.4045431358303 107.29295833095009C554.5485431358303 109.78895833095008 552.0205431358303 111.86895833095008 548.8205431358303 113.53295833095008C545.6205431358303 115.19695833095008 541.9725431358303 116.02895833095009 537.8765431358303 116.02895833095009C533.3325431358303 116.02895833095009 529.1725431358303 114.86095833095008 525.3965431358304 112.52495833095008C521.6205431358303 110.18895833095009 518.6285431358303 106.92495833095009 516.4205431358304 102.73295833095008C514.2125431358303 98.54095833095009 513.1085431358304 93.78895833095008 513.1085431358304 88.47695833095008C513.1085431358304 83.16495833095009 514.2125431358303 78.46095833095009 516.4205431358304 74.36495833095009ZM554.1485431358303 79.16495833095009C552.6445431358303 76.47695833095008 550.6765431358303 74.42895833095008 548.2445431358303 73.0209583309501C545.8125431358303 71.61295833095008 543.1885431358303 70.90895833095009 540.3725431358304 70.90895833095009C537.5565431358303 70.90895833095009 534.9325431358303 71.59695833095009 532.5005431358303 72.97295833095009C530.0685431358303 74.34895833095008 528.1005431358303 76.36495833095009 526.5965431358303 79.0209583309501C525.0925431358303 81.67695833095009 524.3405431358303 84.82895833095009 524.3405431358303 88.47695833095008C524.3405431358303 92.12495833095008 525.0925431358303 95.32495833095008 526.5965431358303 98.07695833095008C528.1005431358303 100.82895833095009 530.0845431358304 102.92495833095009 532.5485431358303 104.36495833095009C535.0125431358304 105.80495833095009 537.6205431358303 106.52495833095008 540.3725431358304 106.52495833095008C543.1885431358303 106.52495833095008 545.8125431358303 105.82095833095009 548.2445431358303 104.41295833095009C550.6765431358303 103.00495833095009 552.6445431358303 100.94095833095008 554.1485431358303 98.22095833095008C555.6525431358303 95.50095833095008 556.4045431358303 92.31695833095009 556.4045431358303 88.66895833095009C556.4045431358303 85.0209583309501 555.6525431358303 81.85295833095009 554.1485431358303 79.16495833095009ZM581.2685431358303 113.82095833095009C579.9245431358303 112.47695833095008 579.2525431358304 110.81295833095008 579.2525431358304 108.82895833095009C579.2525431358304 106.84495833095008 579.9245431358303 105.18095833095009 581.2685431358303 103.83695833095008C582.6125431358303 102.49295833095009 584.2765431358304 101.82095833095009 586.2605431358303 101.82095833095009C588.1805431358304 101.82095833095009 589.8125431358303 102.49295833095009 591.1565431358304 103.83695833095008C592.5005431358303 105.18095833095009 593.1725431358303 106.84495833095008 593.1725431358303 108.82895833095009C593.1725431358303 110.81295833095008 592.5005431358303 112.47695833095008 591.1565431358304 113.82095833095009C589.8125431358303 115.16495833095009 588.1805431358304 115.83695833095008 586.2605431358303 115.83695833095008C584.2765431358304 115.83695833095008 582.6125431358303 115.16495833095009 581.2685431358303 113.82095833095009ZM645.4445431358304 52.524958330950085C650.7885431358303 55.244958330950084 654.9165431358304 59.14895833095009 657.8285431358303 64.23695833095009C660.7405431358303 69.32495833095008 662.1965431358303 75.26095833095007 662.1965431358303 82.0449583309501C662.1965431358303 88.82895833095009 660.7405431358303 94.71695833095009 657.8285431358303 99.70895833095008C654.9165431358304 104.70095833095009 650.7885431358303 108.52495833095008 645.4445431358304 111.18095833095009C640.1005431358303 113.83695833095008 633.8765431358303 115.16495833095009 626.7725431358303 115.16495833095009L604.9805431358303 115.16495833095009L604.9805431358303 48.44495833095009L626.7725431358303 48.44495833095009C633.8765431358303 48.44495833095009 640.1005431358303 49.804958330950086 645.4445431358304 52.524958330950085ZM644.7245431358303 99.90095833095009C648.8845431358303 95.67695833095009 650.9645431358304 89.72495833095009 650.9645431358304 82.0449583309501C650.9645431358304 74.3009583309501 648.8845431358303 68.2529583309501 644.7245431358303 63.90095833095008C640.5645431358303 59.548958330950086 634.5805431358303 57.372958330950084 626.7725431358303 57.372958330950084L615.9245431358303 57.372958330950084L615.9245431358303 106.23695833095009L626.7725431358303 106.23695833095009C634.5805431358303 106.23695833095009 640.5645431358303 104.12495833095008 644.7245431358303 99.90095833095009ZM686.3405431358303 111.46895833095009C681.1245431358303 108.55695833095008 676.9965431358303 104.49295833095009 673.9565431358303 99.27695833095008C670.9165431358304 94.06095833095009 669.3965431358304 88.18895833095009 669.3965431358304 81.66095833095008C669.3965431358304 75.13295833095009 670.9165431358304 69.2769583309501 673.9565431358303 64.09295833095008C676.9965431358303 58.908958330950085 681.1245431358303 54.86095833095008 686.3405431358303 51.948958330950084C691.5565431358303 49.036958330950085 697.2685431358303 47.58095833095008 703.4765431358303 47.58095833095008C709.7485431358303 47.58095833095008 715.4925431358304 49.036958330950085 720.7085431358304 51.948958330950084C725.9245431358304 54.86095833095008 730.0365431358304 58.908958330950085 733.0445431358304 64.09295833095008C736.0525431358303 69.2769583309501 737.5565431358303 75.13295833095009 737.5565431358303 81.66095833095008C737.5565431358303 88.18895833095009 736.0525431358303 94.06095833095009 733.0445431358304 99.27695833095008C730.0365431358304 104.49295833095009 725.9245431358304 108.55695833095008 720.7085431358304 111.46895833095009C715.4925431358304 114.38095833095008 709.7485431358303 115.83695833095008 703.4765431358303 115.83695833095008C697.2685431358303 115.83695833095008 691.5565431358303 114.38095833095008 686.3405431358303 111.46895833095009ZM715.2845431358303 103.30895833095009C718.7405431358303 101.29295833095009 721.4445431358304 98.41295833095009 723.3965431358304 94.66895833095009C725.3485431358304 90.92495833095009 726.3245431358304 86.58895833095008 726.3245431358304 81.66095833095008C726.3245431358304 76.73295833095008 725.3485431358304 72.41295833095009 723.3965431358304 68.70095833095009C721.4445431358304 64.98895833095008 718.7405431358303 62.140958330950085 715.2845431358303 60.15695833095008C711.8285431358304 58.17295833095009 707.8925431358304 57.180958330950084 703.4765431358303 57.180958330950084C699.0605431358304 57.180958330950084 695.1245431358303 58.17295833095009 691.6685431358303 60.15695833095008C688.2125431358303 62.140958330950085 685.5085431358303 64.98895833095008 683.5565431358303 68.70095833095009C681.6045431358303 72.41295833095009 680.6285431358303 76.73295833095008 680.6285431358303 81.66095833095008C680.6285431358303 86.58895833095008 681.6045431358303 90.92495833095009 683.5565431358303 94.66895833095009C685.5085431358303 98.41295833095009 688.2125431358303 101.29295833095009 691.6685431358303 103.30895833095009C695.1245431358303 105.32495833095008 699.0605431358304 106.33295833095008 703.4765431358303 106.33295833095008C707.8925431358304 106.33295833095008 711.8285431358304 105.32495833095008 715.2845431358303 103.30895833095009Z "></path></g></g></g></svg>